<svg xmlns="http://www.w3.org/2000/svg" viewBox="0 0 100 100">
  <rect width="100" height="100" rx="20" fill="#111827"/>
  <polygon points="50,6 52.4,13.2 60,13.2 54.1,17.5 56.4,24.7 50,20.4 43.6,24.7 45.9,17.5 40,13.2 47.6,13.2" fill="#FACC15"/>
  <path d="M29,38 Q14,43 15,58 Q16,70 29,67" stroke="#FACC15" stroke-width="5" stroke-linecap="round" fill="none"/>
  <path d="M71,38 Q86,43 85,58 Q84,70 71,67" stroke="#FACC15" stroke-width="5" stroke-linecap="round" fill="none"/>
  <path d="M29,30 H71 L64,67 Q50,78 36,67 Z" fill="#FACC15"/>
  <rect x="44" y="67" width="12" height="15" rx="1.5" fill="#FACC15"/>
  <rect x="30" y="82" width="40" height="11" rx="4" fill="#FACC15"/>
</svg>
